<?xml version="1.0" encoding="UTF-8"?>
<svg id="Layer_1" data-name="Layer 1" xmlns="http://www.w3.org/2000/svg" viewBox="0 0 595.28 595.28">
  <defs>
    <style>
      .r-letter { fill: #D0F849; }
      .r-arrow  { fill: #49f8f1; }
    </style>
  </defs>
  <!-- Letter R: diagonal slash + all R strokes -->
  <polygon class="r-letter" points="595.28 595.67 423.93 595.67 112 362.67 11.68 296.51 17.68 292.75 18 292.83 112 234.35 112.48 234.03 595.28 595.67"/>
  <g>
    <polygon class="r-letter" points="112 70.19 112 175.18 0 244.95 0 111.55 112 70.19"/>
    <polygon class="r-letter" points="544 111.55 544 112.59 0 112.59 0 111.55 110.96 .58 433.04 .58 544 111.55"/>
    <polygon class="r-letter" points="543.98 112.63 543.98 302.63 431.98 377.27 431.98 112.63 543.98 112.63"/>
    <polygon class="r-letter" points="112 234.03 112 455.95 .08 530.59 0 530.59 0 303.79 11.68 296.51 17.68 292.75 112 234.03"/>
    <polygon class="r-letter" points="431.98 242.63 431.98 377.27 104.44 595.65 .06 530.63 111.98 455.99 402.62 262.23 431.98 242.63"/>
  </g>
  <!-- Arrow: corner triangle top-right -->
  <polygon class="r-arrow" points="484.32 -.39 595.26 -.39 595.26 110.55 484.32 -.39"/>
</svg>
