<?xml version="1.0" encoding="UTF-8"?>
<svg id="Layer_1" data-name="Layer 1" xmlns="http://www.w3.org/2000/svg" viewBox="0 0 595.28 595.28">
  <polygon points="111.99 127.53 111.99 175.19 .01 244.93 .01 127.53 111.99 127.53"/>
  <g>
    <polygon points="256.34 341.78 165.29 402.46 126.96 373.84 126.96 244.88 256.34 341.78"/>
    <polygon points="595.28 595.68 423.94 595.68 285.97 492.61 376.8 432.04 595.28 595.68"/>
  </g>
  <polygon points="544.01 111.53 544.01 112.57 0 112.57 0 111.53 110.96 .57 433.05 .57 544.01 111.53"/>
  <polygon points="543.98 127.53 543.98 302.61 432 377.26 432 127.53 543.98 127.53"/>
  <polygon points="111.99 234.02 111.99 438 103.71 443.53 .01 512.7 .01 303.77 11.66 296.5 17.67 292.75 111.99 234.02"/>
  <polygon points="417.03 252.63 417.03 387.23 104.45 595.63 .06 530.63 111.99 455.97 402.64 262.23 417.03 252.63"/>
  <polygon points="484.33 -.41 595.27 -.41 595.27 110.53 484.33 -.41"/>
</svg>