<?xml version="1.0" encoding="UTF-8"?>
<svg id="Layer_1" data-name="Layer 1" xmlns="http://www.w3.org/2000/svg" xmlns:xlink="http://www.w3.org/1999/xlink" viewBox="0 0 595.28 595.28">
  <defs>
    <style>
      .cls-1 {
        fill: url(#linear-gradient-2);
      }

      .cls-2 {
        fill: url(#linear-gradient-4);
      }

      .cls-3 {
        fill: url(#linear-gradient-3);
      }

      .cls-4 {
        fill: url(#linear-gradient-5);
      }

      .cls-5 {
        fill: url(#linear-gradient-6);
      }

      .cls-6 {
        fill: url(#linear-gradient);
      }

      .cls-7 {
        fill: #d82a0e;
      }
    </style>
    <linearGradient id="linear-gradient" x1="534.82" y1="818.43" x2="60.7" y2="55.33" gradientUnits="userSpaceOnUse">
      <stop offset="0" stop-color="#3e86f9"/>
      <stop offset="1" stop-color="#003487"/>
    </linearGradient>
    <linearGradient id="linear-gradient-2" x1="19.96" y1="-39.69" x2="79.95" y2="288.64" xlink:href="#linear-gradient"/>
    <linearGradient id="linear-gradient-3" x1="705.95" y1="-188.91" x2="-17.77" y2="280.53" xlink:href="#linear-gradient"/>
    <linearGradient id="linear-gradient-4" x1="528.17" y1="448.44" x2="448.77" y2="46.4" xlink:href="#linear-gradient"/>
    <linearGradient id="linear-gradient-5" x1="-26.27" y1="249.31" x2="129.01" y2="500.33" xlink:href="#linear-gradient"/>
    <linearGradient id="linear-gradient-6" x1="-81.84" y1="620.97" x2="477.73" y2="298.33" xlink:href="#linear-gradient"/>
  </defs>
  <g>
    <polygon class="cls-6" points="595.28 595.67 423.93 595.67 112 362.67 11.68 296.51 17.68 292.75 18 292.83 112 234.35 112.48 234.03 595.28 595.67"/>
    <g>
      <polygon class="cls-1" points="112 70.19 112 175.18 0 244.95 0 111.55 112 70.19"/>
      <polygon class="cls-3" points="544 111.55 544 112.59 0 112.59 0 111.55 110.96 .58 433.04 .58 544 111.55"/>
      <polygon class="cls-2" points="543.98 112.63 543.98 302.63 431.98 377.27 431.98 112.63 543.98 112.63"/>
      <polygon class="cls-4" points="112 234.03 112 455.95 .08 530.59 0 530.59 0 303.79 11.68 296.51 17.68 292.75 112 234.03"/>
      <polygon class="cls-5" points="431.98 242.63 431.98 377.27 104.44 595.65 .06 530.63 111.98 455.99 402.62 262.23 431.98 242.63"/>
    </g>
  </g>
  <polygon class="cls-7" points="484.32 -.39 595.26 -.39 595.26 110.55 484.32 -.39"/>
</svg>